<?xml version="1.0" encoding="UTF-8"?>
<!DOCTYPE svg PUBLIC "-//W3C//DTD SVG 1.1//EN" "http://www.w3.org/Graphics/SVG/1.1/DTD/svg11.dtd">
<svg xmlns="http://www.w3.org/2000/svg" version="1.1" width="1024px" height="1024px" style="shape-rendering:geometricPrecision; text-rendering:geometricPrecision; image-rendering:optimizeQuality; fill-rule:evenodd; clip-rule:evenodd" xmlns:xlink="http://www.w3.org/1999/xlink">
<g><path style="opacity:0.997" fill="#bf220d" d="M 480.5,14.5 C 635.233,9.2144 766.4,61.5477 874,171.5C 979.426,288.801 1022.43,426.134 1003,583.5C 977.767,733.922 901.6,850.422 774.5,933C 640.971,1012.79 499.971,1029.12 351.5,982C 220.801,935.299 124.634,849.799 63,725.5C -1.65646,582.857 -1.65646,440.19 63,297.5C 121.279,180.273 211.112,97.106 332.5,48C 380.378,29.861 429.712,18.6943 480.5,14.5 Z"/></g>
<g><path style="opacity:1" fill="#ecc0ba" d="M 483.5,272.5 C 483.5,271.5 483.5,270.5 483.5,269.5C 447.094,269.174 410.761,269.507 374.5,270.5C 410.818,268.506 447.485,267.84 484.5,268.5C 484.768,270.099 484.434,271.432 483.5,272.5 Z"/></g>
<g><path style="opacity:1" fill="#fefefe" d="M 367.5,753.5 C 331.329,753.832 295.329,753.498 259.5,752.5C 277.606,676.202 295.606,599.868 313.5,523.5C 295.507,519.502 277.507,515.502 259.5,511.5C 259.5,474.833 259.5,438.167 259.5,401.5C 286.239,407.622 312.905,413.955 339.5,420.5C 350.534,370.362 362.201,320.362 374.5,270.5C 410.761,269.507 447.094,269.174 483.5,269.5C 483.5,270.5 483.5,271.5 483.5,272.5C 469.662,329.179 456.162,385.846 443,442.5C 508.819,387.121 572.652,329.288 634.5,269C 677.504,268.167 720.504,268.333 763.5,269.5C 694.209,335.963 623.542,400.796 551.5,464C 536.645,476.356 521.645,488.523 506.5,500.5C 574.217,574.861 626.55,659.194 663.5,753.5C 623.833,754.833 584.167,754.833 544.5,753.5C 519.213,693.223 487.046,637.223 448,585.5C 438.527,573.56 428.36,562.227 417.5,551.5C 400.827,618.859 384.16,686.193 367.5,753.5 Z"/></g>
<g><path style="opacity:1" fill="#e5a9a0" d="M 259.5,752.5 C 295.329,753.498 331.329,753.832 367.5,753.5C 331.331,754.83 294.998,754.83 258.5,753.5C 258.624,752.893 258.957,752.56 259.5,752.5 Z"/></g>
</svg>
